# xmcd CD database file
#
# Track frame offsets:
#	150
#	19515
#	46166
#	72751
#	91551
#	133008
#	155379
#	175924
#	195108
#	218652
#	241204
#	273522
#	291950
#
# Disc length: 4263 seconds
#
# Revision: 0
# Processed by: cddbd v1.5.1PL0 Copyright (c) Steve Scherf et al.
# Submitted via: CDex 1.51
#
DISCID=a410a50d
DTITLE=Jimmy Dawkins - Kant Sheck Dees Bluze
DYEAR=1991
DGENRE=Blues
TTITLE0=I Ain't Got It
TTITLE1=Rockin D. Blues
TTITLE2=Make The Hard Way
TTITLE3=A Love Like That
TTITLE4=Kant Sheck Dees Bluze
TTITLE5=Gittar Rapp
TTITLE6=Too Bad Baby
TTITLE7=My Man Loves Me
TTITLE8=Get On The Ball
TTITLE9=Wes Cide Bluze
TTITLE10=Beetin Nockin Ringin
TTITLE11=Luv Somebody
TTITLE12=Gotta Hold On
EXTD=YEAR: 1991
EXTT0=
EXTT1=
EXTT2=
EXTT3=
EXTT4=
EXTT5=
EXTT6=
EXTT7=
EXTT8=
EXTT9=
EXTT10=
EXTT11=
EXTT12=
PLAYORDER=
